<mxfile host="Electron" agent="Mozilla/5.0 (Windows NT 10.0; Win64; x64) AppleWebKit/537.36 (KHTML, like Gecko) draw.io/24.7.8 Chrome/128.0.6613.36 Electron/32.0.1 Safari/537.36" version="24.7.8" pages="4">
  <diagram name="Создание" id="AkwDxQqqYs-eBX9yuDrB">
    <mxGraphModel dx="1098" dy="988" grid="1" gridSize="10" guides="1" tooltips="1" connect="1" arrows="1" fold="1" page="1" pageScale="1" pageWidth="827" pageHeight="1169" math="0" shadow="0">
      <root>
        <mxCell id="0" />
        <mxCell id="1" parent="0" />
        <mxCell id="ypfQIssu2wnFOBAlBwQ_-7" value="Система" style="shape=umlLifeline;perimeter=lifelinePerimeter;whiteSpace=wrap;html=1;container=1;collapsible=0;recursiveResize=0;outlineConnect=0;labelBackgroundColor=none;strokeColor=#9673a6;fontFamily=Helvetica;fontSize=11;fillColor=#e1d5e7;" vertex="1" parent="1">
          <mxGeometry x="200" y="40" width="120" height="560" as="geometry" />
        </mxCell>
        <mxCell id="ypfQIssu2wnFOBAlBwQ_-8" value="Валидация данных&lt;br&gt;(Общее: валидация)" style="html=1;verticalAlign=bottom;endArrow=block;rounded=0;labelBackgroundColor=default;strokeColor=default;fontFamily=Helvetica;fontSize=11;fontColor=default;shape=connector;curved=0;" edge="1" parent="ypfQIssu2wnFOBAlBwQ_-7" target="ypfQIssu2wnFOBAlBwQ_-10">
          <mxGeometry x="0.0968" width="80" relative="1" as="geometry">
            <mxPoint x="65" y="184" as="sourcePoint" />
            <mxPoint x="130" y="234" as="targetPoint" />
            <Array as="points">
              <mxPoint x="130" y="184" />
              <mxPoint x="130" y="214" />
              <mxPoint x="100" y="214" />
            </Array>
            <mxPoint as="offset" />
          </mxGeometry>
        </mxCell>
        <mxCell id="ypfQIssu2wnFOBAlBwQ_-9" value="" style="html=1;points=[];perimeter=orthogonalPerimeter;labelBackgroundColor=none;strokeColor=#000000;fontFamily=Helvetica;fontSize=11;fontColor=default;fillColor=default;" vertex="1" parent="ypfQIssu2wnFOBAlBwQ_-7">
          <mxGeometry x="55" y="90" width="10" height="180" as="geometry" />
        </mxCell>
        <mxCell id="ypfQIssu2wnFOBAlBwQ_-10" value="" style="html=1;points=[];perimeter=orthogonalPerimeter;labelBackgroundColor=none;strokeColor=#001DBC;fontFamily=Helvetica;fontSize=11;fontColor=#ffffff;fillColor=#0050ef;" vertex="1" parent="ypfQIssu2wnFOBAlBwQ_-7">
          <mxGeometry x="60" y="214" width="10" height="20" as="geometry" />
        </mxCell>
        <mxCell id="ypfQIssu2wnFOBAlBwQ_-11" value="" style="html=1;points=[];perimeter=orthogonalPerimeter;labelBackgroundColor=none;strokeColor=#B09500;fontFamily=Helvetica;fontSize=11;fontColor=#000000;fillColor=#e3c800;" vertex="1" parent="ypfQIssu2wnFOBAlBwQ_-7">
          <mxGeometry x="60" y="140" width="10" height="20" as="geometry" />
        </mxCell>
        <mxCell id="ypfQIssu2wnFOBAlBwQ_-12" value="Проверка токена&lt;br&gt;(Общее: проверка прав)" style="html=1;verticalAlign=bottom;endArrow=block;rounded=0;labelBackgroundColor=default;strokeColor=default;fontFamily=Helvetica;fontSize=11;fontColor=default;shape=connector;curved=0;" edge="1" parent="ypfQIssu2wnFOBAlBwQ_-7" target="ypfQIssu2wnFOBAlBwQ_-11">
          <mxGeometry x="-0.1613" y="10" width="80" relative="1" as="geometry">
            <mxPoint x="65" y="110" as="sourcePoint" />
            <mxPoint x="130" y="160" as="targetPoint" />
            <Array as="points">
              <mxPoint x="130" y="110" />
              <mxPoint x="130" y="140" />
              <mxPoint x="100" y="140" />
            </Array>
            <mxPoint x="10" y="10" as="offset" />
          </mxGeometry>
        </mxCell>
        <mxCell id="ypfQIssu2wnFOBAlBwQ_-13" value="Пользователь" style="shape=umlLifeline;perimeter=lifelinePerimeter;whiteSpace=wrap;html=1;container=1;collapsible=0;recursiveResize=0;outlineConnect=0;labelBackgroundColor=none;strokeColor=#d6b656;fontFamily=Helvetica;fontSize=11;fillColor=#fff2cc;" vertex="1" parent="1">
          <mxGeometry x="40" y="40" width="120" height="560" as="geometry" />
        </mxCell>
        <mxCell id="ypfQIssu2wnFOBAlBwQ_-14" value="" style="html=1;points=[];perimeter=orthogonalPerimeter;labelBackgroundColor=none;strokeColor=#000000;fontFamily=Helvetica;fontSize=11;fontColor=default;fillColor=default;" vertex="1" parent="ypfQIssu2wnFOBAlBwQ_-13">
          <mxGeometry x="55" y="80" width="10" height="460" as="geometry" />
        </mxCell>
        <mxCell id="ypfQIssu2wnFOBAlBwQ_-15" value="Запрос создания" style="html=1;verticalAlign=bottom;endArrow=block;rounded=0;labelBackgroundColor=default;strokeColor=default;fontFamily=Helvetica;fontSize=11;fontColor=default;shape=connector;curved=0;" edge="1" parent="1" source="ypfQIssu2wnFOBAlBwQ_-14" target="ypfQIssu2wnFOBAlBwQ_-9">
          <mxGeometry x="0.0032" width="80" relative="1" as="geometry">
            <mxPoint x="100" y="140" as="sourcePoint" />
            <mxPoint x="180" y="140" as="targetPoint" />
            <Array as="points">
              <mxPoint x="180" y="130" />
            </Array>
            <mxPoint as="offset" />
          </mxGeometry>
        </mxCell>
        <mxCell id="ypfQIssu2wnFOBAlBwQ_-16" value="Контроллер&lt;div&gt;комментариев&lt;/div&gt;" style="shape=umlLifeline;perimeter=lifelinePerimeter;whiteSpace=wrap;html=1;container=1;collapsible=0;recursiveResize=0;outlineConnect=0;labelBackgroundColor=none;strokeColor=#d79b00;fontFamily=Helvetica;fontSize=11;fillColor=#ffe6cc;" vertex="1" parent="1">
          <mxGeometry x="360" y="40" width="120" height="560" as="geometry" />
        </mxCell>
        <mxCell id="ypfQIssu2wnFOBAlBwQ_-17" value="" style="html=1;points=[];perimeter=orthogonalPerimeter;labelBackgroundColor=none;strokeColor=#000000;fontFamily=Helvetica;fontSize=11;fontColor=default;fillColor=default;" vertex="1" parent="ypfQIssu2wnFOBAlBwQ_-16">
          <mxGeometry x="55" y="260" width="10" height="270" as="geometry" />
        </mxCell>
        <mxCell id="ypfQIssu2wnFOBAlBwQ_-18" value="Отправка данных" style="html=1;verticalAlign=bottom;endArrow=block;rounded=0;labelBackgroundColor=default;strokeColor=default;fontFamily=Helvetica;fontSize=11;fontColor=default;shape=connector;curved=0;" edge="1" parent="ypfQIssu2wnFOBAlBwQ_-16">
          <mxGeometry x="0.0032" width="80" relative="1" as="geometry">
            <mxPoint x="-95" y="260" as="sourcePoint" />
            <mxPoint x="55" y="260" as="targetPoint" />
            <Array as="points">
              <mxPoint x="-20" y="260" />
            </Array>
            <mxPoint as="offset" />
          </mxGeometry>
        </mxCell>
        <mxCell id="ypfQIssu2wnFOBAlBwQ_-19" value="Отправка данных" style="html=1;verticalAlign=bottom;endArrow=block;rounded=0;labelBackgroundColor=default;strokeColor=default;fontFamily=Helvetica;fontSize=11;fontColor=default;shape=connector;curved=0;" edge="1" parent="ypfQIssu2wnFOBAlBwQ_-16" target="ypfQIssu2wnFOBAlBwQ_-24">
          <mxGeometry x="0.0032" width="80" relative="1" as="geometry">
            <mxPoint x="65" y="370" as="sourcePoint" />
            <mxPoint x="215" y="370" as="targetPoint" />
            <Array as="points">
              <mxPoint x="140" y="370" />
            </Array>
            <mxPoint as="offset" />
          </mxGeometry>
        </mxCell>
        <mxCell id="ypfQIssu2wnFOBAlBwQ_-20" value="База данных" style="shape=umlLifeline;perimeter=lifelinePerimeter;whiteSpace=wrap;html=1;container=1;collapsible=0;recursiveResize=0;outlineConnect=0;labelBackgroundColor=none;strokeColor=#82b366;fontFamily=Helvetica;fontSize=11;fillColor=#d5e8d4;" vertex="1" parent="1">
          <mxGeometry x="680" y="40" width="120" height="560" as="geometry" />
        </mxCell>
        <mxCell id="ypfQIssu2wnFOBAlBwQ_-21" value="" style="html=1;points=[];perimeter=orthogonalPerimeter;labelBackgroundColor=none;strokeColor=#000000;fontFamily=Helvetica;fontSize=11;fontColor=default;fillColor=default;" vertex="1" parent="ypfQIssu2wnFOBAlBwQ_-20">
          <mxGeometry x="55" y="490" width="10" height="30" as="geometry" />
        </mxCell>
        <mxCell id="ypfQIssu2wnFOBAlBwQ_-22" value="Ответ 201 с данными о комментарии" style="html=1;verticalAlign=bottom;endArrow=open;dashed=1;endSize=8;rounded=0;labelBackgroundColor=default;strokeColor=default;fontFamily=Helvetica;fontSize=11;fontColor=default;shape=connector;curved=0;" edge="1" parent="1">
          <mxGeometry x="0.0023" relative="1" as="geometry">
            <mxPoint x="415" y="560" as="sourcePoint" />
            <mxPoint x="105" y="560" as="targetPoint" />
            <Array as="points">
              <mxPoint x="300" y="560" />
            </Array>
            <mxPoint as="offset" />
          </mxGeometry>
        </mxCell>
        <mxCell id="ypfQIssu2wnFOBAlBwQ_-23" value="Контроллер&lt;div&gt;новостей&lt;/div&gt;" style="shape=umlLifeline;perimeter=lifelinePerimeter;whiteSpace=wrap;html=1;container=1;collapsible=0;recursiveResize=0;outlineConnect=0;labelBackgroundColor=none;strokeColor=#5B5B96;fontFamily=Helvetica;fontSize=11;fillColor=#9999FF;" vertex="1" parent="1">
          <mxGeometry x="520" y="40" width="120" height="560" as="geometry" />
        </mxCell>
        <mxCell id="ypfQIssu2wnFOBAlBwQ_-24" value="" style="html=1;points=[];perimeter=orthogonalPerimeter;labelBackgroundColor=none;strokeColor=#000000;fontFamily=Helvetica;fontSize=11;fontColor=default;fillColor=default;" vertex="1" parent="ypfQIssu2wnFOBAlBwQ_-23">
          <mxGeometry x="55" y="370" width="10" height="80" as="geometry" />
        </mxCell>
        <mxCell id="ypfQIssu2wnFOBAlBwQ_-25" value="Проверка существования&lt;br&gt;новости&lt;br&gt;(Общее: поиск по id)" style="html=1;verticalAlign=bottom;endArrow=block;rounded=0;labelBackgroundColor=default;strokeColor=default;fontFamily=Helvetica;fontSize=11;fontColor=default;shape=connector;curved=0;" edge="1" parent="ypfQIssu2wnFOBAlBwQ_-23" target="ypfQIssu2wnFOBAlBwQ_-26">
          <mxGeometry x="-0.1613" y="14" width="80" relative="1" as="geometry">
            <mxPoint x="65" y="379" as="sourcePoint" />
            <mxPoint x="130" y="429" as="targetPoint" />
            <Array as="points">
              <mxPoint x="130" y="379" />
              <mxPoint x="130" y="409" />
              <mxPoint x="100" y="409" />
            </Array>
            <mxPoint x="-4" y="-10" as="offset" />
          </mxGeometry>
        </mxCell>
        <mxCell id="ypfQIssu2wnFOBAlBwQ_-26" value="" style="html=1;points=[];perimeter=orthogonalPerimeter;labelBackgroundColor=none;strokeColor=#488F00;fontFamily=Helvetica;fontSize=11;fontColor=#ffffff;fillColor=#66CC00;" vertex="1" parent="ypfQIssu2wnFOBAlBwQ_-23">
          <mxGeometry x="60" y="409" width="10" height="20" as="geometry" />
        </mxCell>
        <mxCell id="ypfQIssu2wnFOBAlBwQ_-27" value="return" style="html=1;verticalAlign=bottom;endArrow=open;dashed=1;endSize=8;rounded=0;labelBackgroundColor=default;strokeColor=default;fontFamily=Helvetica;fontSize=11;fontColor=default;shape=connector;curved=0;" edge="1" parent="1" source="ypfQIssu2wnFOBAlBwQ_-24" target="ypfQIssu2wnFOBAlBwQ_-17">
          <mxGeometry x="0.0023" relative="1" as="geometry">
            <mxPoint x="730" y="480" as="sourcePoint" />
            <mxPoint x="580" y="480" as="targetPoint" />
            <Array as="points">
              <mxPoint x="520" y="480" />
            </Array>
            <mxPoint as="offset" />
          </mxGeometry>
        </mxCell>
        <mxCell id="ypfQIssu2wnFOBAlBwQ_-28" value="Запись комментария" style="html=1;verticalAlign=bottom;endArrow=block;rounded=0;labelBackgroundColor=default;strokeColor=default;fontFamily=Helvetica;fontSize=11;fontColor=default;shape=connector;curved=0;" edge="1" parent="1" target="ypfQIssu2wnFOBAlBwQ_-21">
          <mxGeometry x="0.0032" width="80" relative="1" as="geometry">
            <mxPoint x="425" y="530" as="sourcePoint" />
            <mxPoint x="575" y="530" as="targetPoint" />
            <Array as="points">
              <mxPoint x="500" y="530" />
            </Array>
            <mxPoint as="offset" />
          </mxGeometry>
        </mxCell>
        <mxCell id="ypfQIssu2wnFOBAlBwQ_-29" value="return" style="html=1;verticalAlign=bottom;endArrow=open;dashed=1;endSize=8;rounded=0;labelBackgroundColor=default;strokeColor=default;fontFamily=Helvetica;fontSize=11;fontColor=default;shape=connector;curved=0;" edge="1" parent="1" source="ypfQIssu2wnFOBAlBwQ_-21" target="ypfQIssu2wnFOBAlBwQ_-17">
          <mxGeometry x="0.0023" relative="1" as="geometry">
            <mxPoint x="575" y="550" as="sourcePoint" />
            <mxPoint x="425" y="550" as="targetPoint" />
            <Array as="points">
              <mxPoint x="470" y="550" />
            </Array>
            <mxPoint as="offset" />
          </mxGeometry>
        </mxCell>
        <mxCell id="ypfQIssu2wnFOBAlBwQ_-30" value="" style="ellipse;html=1;shape=endState;fillColor=#000000;strokeColor=#ff0000;labelBackgroundColor=none;fontFamily=Helvetica;fontSize=11;fontColor=default;" vertex="1" parent="1">
          <mxGeometry x="85" y="590" width="30" height="30" as="geometry" />
        </mxCell>
      </root>
    </mxGraphModel>
  </diagram>
  <diagram id="9QBsUSW23NKKrEW2hS0p" name="Просмотр">
    <mxGraphModel dx="1098" dy="988" grid="1" gridSize="10" guides="1" tooltips="1" connect="1" arrows="1" fold="1" page="1" pageScale="1" pageWidth="827" pageHeight="1169" math="0" shadow="0">
      <root>
        <mxCell id="0" />
        <mxCell id="1" parent="0" />
        <mxCell id="SK5MLtlk12ELwbng-SG--1" value="Пользователь" style="shape=umlLifeline;perimeter=lifelinePerimeter;whiteSpace=wrap;html=1;container=1;collapsible=0;recursiveResize=0;outlineConnect=0;labelBackgroundColor=none;strokeColor=#d6b656;fontFamily=Helvetica;fontSize=11;fillColor=#fff2cc;" vertex="1" parent="1">
          <mxGeometry x="80" y="40" width="120" height="280" as="geometry" />
        </mxCell>
        <mxCell id="SK5MLtlk12ELwbng-SG--2" value="" style="html=1;points=[];perimeter=orthogonalPerimeter;labelBackgroundColor=none;strokeColor=#000000;fontFamily=Helvetica;fontSize=11;fontColor=default;fillColor=default;" vertex="1" parent="SK5MLtlk12ELwbng-SG--1">
          <mxGeometry x="55" y="80" width="10" height="180" as="geometry" />
        </mxCell>
        <mxCell id="SK5MLtlk12ELwbng-SG--3" value="" style="ellipse;html=1;shape=endState;fillColor=#000000;strokeColor=#ff0000;labelBackgroundColor=none;fontFamily=Helvetica;fontSize=11;fontColor=default;" vertex="1" parent="SK5MLtlk12ELwbng-SG--1">
          <mxGeometry x="45" y="270" width="30" height="30" as="geometry" />
        </mxCell>
        <mxCell id="SK5MLtlk12ELwbng-SG--4" value="Система" style="shape=umlLifeline;perimeter=lifelinePerimeter;whiteSpace=wrap;html=1;container=1;collapsible=0;recursiveResize=0;outlineConnect=0;labelBackgroundColor=none;strokeColor=#9673a6;fontFamily=Helvetica;fontSize=11;fillColor=#e1d5e7;" vertex="1" parent="1">
          <mxGeometry x="240" y="40" width="120" height="280" as="geometry" />
        </mxCell>
        <mxCell id="SK5MLtlk12ELwbng-SG--5" value="Валидация данных&lt;br&gt;(Общее: валидация)" style="html=1;verticalAlign=bottom;endArrow=block;rounded=0;labelBackgroundColor=default;strokeColor=default;fontFamily=Helvetica;fontSize=11;fontColor=default;shape=connector;curved=0;" edge="1" parent="SK5MLtlk12ELwbng-SG--4" source="SK5MLtlk12ELwbng-SG--6" target="SK5MLtlk12ELwbng-SG--7">
          <mxGeometry x="0.0968" width="80" relative="1" as="geometry">
            <mxPoint x="64" y="110" as="sourcePoint" />
            <mxPoint x="130" y="150" as="targetPoint" />
            <Array as="points">
              <mxPoint x="130" y="100" />
              <mxPoint x="130" y="130" />
              <mxPoint x="100" y="130" />
            </Array>
            <mxPoint as="offset" />
          </mxGeometry>
        </mxCell>
        <mxCell id="SK5MLtlk12ELwbng-SG--6" value="" style="html=1;points=[];perimeter=orthogonalPerimeter;labelBackgroundColor=none;strokeColor=#000000;fontFamily=Helvetica;fontSize=11;fontColor=default;fillColor=default;" vertex="1" parent="SK5MLtlk12ELwbng-SG--4">
          <mxGeometry x="55" y="90" width="10" height="90" as="geometry" />
        </mxCell>
        <mxCell id="SK5MLtlk12ELwbng-SG--7" value="" style="html=1;points=[];perimeter=orthogonalPerimeter;labelBackgroundColor=none;strokeColor=#001DBC;fontFamily=Helvetica;fontSize=11;fontColor=#ffffff;fillColor=#0050ef;" vertex="1" parent="SK5MLtlk12ELwbng-SG--4">
          <mxGeometry x="60" y="130" width="10" height="20" as="geometry" />
        </mxCell>
        <mxCell id="SK5MLtlk12ELwbng-SG--8" value="Отправка данных" style="html=1;verticalAlign=bottom;endArrow=block;rounded=0;labelBackgroundColor=default;strokeColor=default;fontFamily=Helvetica;fontSize=11;fontColor=default;shape=connector;curved=0;" edge="1" parent="SK5MLtlk12ELwbng-SG--4">
          <mxGeometry x="0.0032" width="80" relative="1" as="geometry">
            <mxPoint x="65" y="170" as="sourcePoint" />
            <mxPoint x="215" y="170" as="targetPoint" />
            <Array as="points">
              <mxPoint x="140" y="170" />
            </Array>
            <mxPoint as="offset" />
          </mxGeometry>
        </mxCell>
        <mxCell id="SK5MLtlk12ELwbng-SG--9" value="Запрос просмотра" style="html=1;verticalAlign=bottom;endArrow=block;rounded=0;labelBackgroundColor=default;strokeColor=default;fontFamily=Helvetica;fontSize=11;fontColor=default;shape=connector;curved=0;" edge="1" parent="1" source="SK5MLtlk12ELwbng-SG--2" target="SK5MLtlk12ELwbng-SG--6">
          <mxGeometry x="0.0032" width="80" relative="1" as="geometry">
            <mxPoint x="140" y="140" as="sourcePoint" />
            <mxPoint x="220" y="140" as="targetPoint" />
            <Array as="points">
              <mxPoint x="220" y="130" />
            </Array>
            <mxPoint as="offset" />
          </mxGeometry>
        </mxCell>
        <mxCell id="SK5MLtlk12ELwbng-SG--10" value="Контроллер&lt;div&gt;комментариев&lt;/div&gt;" style="shape=umlLifeline;perimeter=lifelinePerimeter;whiteSpace=wrap;html=1;container=1;collapsible=0;recursiveResize=0;outlineConnect=0;labelBackgroundColor=none;strokeColor=#d79b00;fontFamily=Helvetica;fontSize=11;fillColor=#ffe6cc;" vertex="1" parent="1">
          <mxGeometry x="400" y="40" width="120" height="280" as="geometry" />
        </mxCell>
        <mxCell id="SK5MLtlk12ELwbng-SG--11" value="" style="html=1;points=[];perimeter=orthogonalPerimeter;labelBackgroundColor=none;strokeColor=#000000;fontFamily=Helvetica;fontSize=11;fontColor=default;fillColor=default;" vertex="1" parent="SK5MLtlk12ELwbng-SG--10">
          <mxGeometry x="55" y="170" width="10" height="79.25" as="geometry" />
        </mxCell>
        <mxCell id="SK5MLtlk12ELwbng-SG--12" value="Поиск комментария&lt;br&gt;(Общее: поиск по id)" style="html=1;verticalAlign=bottom;endArrow=block;rounded=0;labelBackgroundColor=default;strokeColor=default;fontFamily=Helvetica;fontSize=11;fontColor=default;shape=connector;curved=0;" edge="1" parent="SK5MLtlk12ELwbng-SG--10" target="SK5MLtlk12ELwbng-SG--13">
          <mxGeometry x="-0.1613" width="80" relative="1" as="geometry">
            <mxPoint x="65" y="179.25" as="sourcePoint" />
            <mxPoint x="130" y="229.25" as="targetPoint" />
            <Array as="points">
              <mxPoint x="130" y="179.25" />
              <mxPoint x="130" y="209.25" />
              <mxPoint x="100" y="209.25" />
            </Array>
            <mxPoint as="offset" />
          </mxGeometry>
        </mxCell>
        <mxCell id="SK5MLtlk12ELwbng-SG--13" value="" style="html=1;points=[];perimeter=orthogonalPerimeter;labelBackgroundColor=none;strokeColor=#488F00;fontFamily=Helvetica;fontSize=11;fontColor=#ffffff;fillColor=#66CC00;" vertex="1" parent="SK5MLtlk12ELwbng-SG--10">
          <mxGeometry x="60" y="209.25" width="10" height="20" as="geometry" />
        </mxCell>
        <mxCell id="SK5MLtlk12ELwbng-SG--14" value="Ответ 200 с&lt;br&gt;данными о комментарии" style="html=1;verticalAlign=bottom;endArrow=open;dashed=1;endSize=8;rounded=0;labelBackgroundColor=default;strokeColor=default;fontFamily=Helvetica;fontSize=11;fontColor=default;shape=connector;curved=0;" edge="1" parent="1">
          <mxGeometry x="0.0023" relative="1" as="geometry">
            <mxPoint x="455" y="280" as="sourcePoint" />
            <mxPoint x="145" y="280" as="targetPoint" />
            <Array as="points">
              <mxPoint x="340" y="280" />
            </Array>
            <mxPoint as="offset" />
          </mxGeometry>
        </mxCell>
      </root>
    </mxGraphModel>
  </diagram>
  <diagram id="82KS4FKTuWpu7HLy07Pw" name="Редактирование">
    <mxGraphModel dx="1098" dy="988" grid="1" gridSize="10" guides="1" tooltips="1" connect="1" arrows="1" fold="1" page="1" pageScale="1" pageWidth="827" pageHeight="1169" math="0" shadow="0">
      <root>
        <mxCell id="0" />
        <mxCell id="1" parent="0" />
        <mxCell id="1mw0ulYPyY49akatDGrM-1" value="Пользователь" style="shape=umlLifeline;perimeter=lifelinePerimeter;whiteSpace=wrap;html=1;container=1;collapsible=0;recursiveResize=0;outlineConnect=0;labelBackgroundColor=none;strokeColor=#d6b656;fontFamily=Helvetica;fontSize=11;fillColor=#fff2cc;" vertex="1" parent="1">
          <mxGeometry x="80" y="40" width="120" height="400" as="geometry" />
        </mxCell>
        <mxCell id="1mw0ulYPyY49akatDGrM-2" value="" style="html=1;points=[];perimeter=orthogonalPerimeter;labelBackgroundColor=none;strokeColor=#000000;fontFamily=Helvetica;fontSize=11;fontColor=default;fillColor=default;" vertex="1" parent="1mw0ulYPyY49akatDGrM-1">
          <mxGeometry x="55" y="80" width="10" height="300" as="geometry" />
        </mxCell>
        <mxCell id="1mw0ulYPyY49akatDGrM-3" value="" style="ellipse;html=1;shape=endState;fillColor=#000000;strokeColor=#ff0000;labelBackgroundColor=none;fontFamily=Helvetica;fontSize=11;fontColor=default;" vertex="1" parent="1mw0ulYPyY49akatDGrM-1">
          <mxGeometry x="45" y="390" width="30" height="30" as="geometry" />
        </mxCell>
        <mxCell id="1mw0ulYPyY49akatDGrM-4" value="Система" style="shape=umlLifeline;perimeter=lifelinePerimeter;whiteSpace=wrap;html=1;container=1;collapsible=0;recursiveResize=0;outlineConnect=0;labelBackgroundColor=none;strokeColor=#9673a6;fontFamily=Helvetica;fontSize=11;fillColor=#e1d5e7;" vertex="1" parent="1">
          <mxGeometry x="240" y="40" width="120" height="400" as="geometry" />
        </mxCell>
        <mxCell id="1mw0ulYPyY49akatDGrM-5" value="Валидация данных&lt;br&gt;(Общее: валидация)" style="html=1;verticalAlign=bottom;endArrow=block;rounded=0;labelBackgroundColor=default;strokeColor=default;fontFamily=Helvetica;fontSize=11;fontColor=default;shape=connector;curved=0;" edge="1" parent="1mw0ulYPyY49akatDGrM-4" target="1mw0ulYPyY49akatDGrM-7">
          <mxGeometry x="-0.1613" y="9" width="80" relative="1" as="geometry">
            <mxPoint x="66" y="170" as="sourcePoint" />
            <mxPoint x="131" y="220" as="targetPoint" />
            <Array as="points">
              <mxPoint x="131" y="170" />
              <mxPoint x="131" y="200" />
              <mxPoint x="101" y="200" />
            </Array>
            <mxPoint as="offset" />
          </mxGeometry>
        </mxCell>
        <mxCell id="1mw0ulYPyY49akatDGrM-6" value="" style="html=1;points=[];perimeter=orthogonalPerimeter;labelBackgroundColor=none;strokeColor=#000000;fontFamily=Helvetica;fontSize=11;fontColor=default;fillColor=default;" vertex="1" parent="1mw0ulYPyY49akatDGrM-4">
          <mxGeometry x="55" y="90" width="10" height="160" as="geometry" />
        </mxCell>
        <mxCell id="1mw0ulYPyY49akatDGrM-7" value="" style="html=1;points=[];perimeter=orthogonalPerimeter;labelBackgroundColor=none;strokeColor=#001DBC;fontFamily=Helvetica;fontSize=11;fontColor=#ffffff;fillColor=#0050ef;" vertex="1" parent="1mw0ulYPyY49akatDGrM-4">
          <mxGeometry x="61" y="200" width="10" height="20" as="geometry" />
        </mxCell>
        <mxCell id="1mw0ulYPyY49akatDGrM-8" value="Проверка токена&lt;br&gt;(Общее: проверка прав)" style="html=1;verticalAlign=bottom;endArrow=block;rounded=0;labelBackgroundColor=default;strokeColor=default;fontFamily=Helvetica;fontSize=11;fontColor=default;shape=connector;curved=0;" edge="1" parent="1mw0ulYPyY49akatDGrM-4" target="1mw0ulYPyY49akatDGrM-9">
          <mxGeometry x="-0.1613" y="9" width="80" relative="1" as="geometry">
            <mxPoint x="66" y="110" as="sourcePoint" />
            <mxPoint x="131" y="160" as="targetPoint" />
            <Array as="points">
              <mxPoint x="131" y="110" />
              <mxPoint x="131" y="140" />
              <mxPoint x="101" y="140" />
            </Array>
            <mxPoint as="offset" />
          </mxGeometry>
        </mxCell>
        <mxCell id="1mw0ulYPyY49akatDGrM-9" value="" style="html=1;points=[];perimeter=orthogonalPerimeter;labelBackgroundColor=none;strokeColor=#B09500;fontFamily=Helvetica;fontSize=11;fontColor=#000000;fillColor=#e3c800;" vertex="1" parent="1mw0ulYPyY49akatDGrM-4">
          <mxGeometry x="61" y="140" width="10" height="20" as="geometry" />
        </mxCell>
        <mxCell id="1mw0ulYPyY49akatDGrM-10" value="Запрос редактирования" style="html=1;verticalAlign=bottom;endArrow=block;rounded=0;labelBackgroundColor=default;strokeColor=default;fontFamily=Helvetica;fontSize=11;fontColor=default;shape=connector;curved=0;" edge="1" parent="1" source="1mw0ulYPyY49akatDGrM-2" target="1mw0ulYPyY49akatDGrM-6">
          <mxGeometry x="0.0032" width="80" relative="1" as="geometry">
            <mxPoint x="140" y="140" as="sourcePoint" />
            <mxPoint x="220" y="140" as="targetPoint" />
            <Array as="points">
              <mxPoint x="220" y="130" />
            </Array>
            <mxPoint as="offset" />
          </mxGeometry>
        </mxCell>
        <mxCell id="1mw0ulYPyY49akatDGrM-11" value="Контроллер&lt;div&gt;комментариев&lt;/div&gt;" style="shape=umlLifeline;perimeter=lifelinePerimeter;whiteSpace=wrap;html=1;container=1;collapsible=0;recursiveResize=0;outlineConnect=0;labelBackgroundColor=none;strokeColor=#d79b00;fontFamily=Helvetica;fontSize=11;fillColor=#ffe6cc;" vertex="1" parent="1">
          <mxGeometry x="400" y="40" width="120" height="400" as="geometry" />
        </mxCell>
        <mxCell id="1mw0ulYPyY49akatDGrM-12" value="" style="html=1;points=[];perimeter=orthogonalPerimeter;labelBackgroundColor=none;strokeColor=#000000;fontFamily=Helvetica;fontSize=11;fontColor=default;fillColor=default;" vertex="1" parent="1mw0ulYPyY49akatDGrM-11">
          <mxGeometry x="55" y="240" width="10" height="130" as="geometry" />
        </mxCell>
        <mxCell id="1mw0ulYPyY49akatDGrM-13" value="Поиск комментария&lt;br&gt;(Общее: поиск по id)" style="html=1;verticalAlign=bottom;endArrow=block;rounded=0;labelBackgroundColor=default;strokeColor=default;fontFamily=Helvetica;fontSize=11;fontColor=default;shape=connector;curved=0;" edge="1" parent="1mw0ulYPyY49akatDGrM-11" target="1mw0ulYPyY49akatDGrM-14">
          <mxGeometry x="-0.1613" width="80" relative="1" as="geometry">
            <mxPoint x="65" y="260" as="sourcePoint" />
            <mxPoint x="130" y="310" as="targetPoint" />
            <Array as="points">
              <mxPoint x="130" y="260" />
              <mxPoint x="130" y="290" />
              <mxPoint x="100" y="290" />
            </Array>
            <mxPoint as="offset" />
          </mxGeometry>
        </mxCell>
        <mxCell id="1mw0ulYPyY49akatDGrM-14" value="" style="html=1;points=[];perimeter=orthogonalPerimeter;labelBackgroundColor=none;strokeColor=#488F00;fontFamily=Helvetica;fontSize=11;fontColor=#ffffff;fillColor=#66CC00;" vertex="1" parent="1mw0ulYPyY49akatDGrM-11">
          <mxGeometry x="60" y="290" width="10" height="20" as="geometry" />
        </mxCell>
        <mxCell id="1mw0ulYPyY49akatDGrM-15" value="Отправка данных" style="html=1;verticalAlign=bottom;endArrow=block;rounded=0;labelBackgroundColor=default;strokeColor=default;fontFamily=Helvetica;fontSize=11;fontColor=default;shape=connector;curved=0;" edge="1" parent="1mw0ulYPyY49akatDGrM-11">
          <mxGeometry x="0.0032" width="80" relative="1" as="geometry">
            <mxPoint x="-95" y="240" as="sourcePoint" />
            <mxPoint x="55" y="240" as="targetPoint" />
            <Array as="points">
              <mxPoint x="-20" y="240" />
            </Array>
            <mxPoint as="offset" />
          </mxGeometry>
        </mxCell>
        <mxCell id="1mw0ulYPyY49akatDGrM-16" value="Ответ 204 No Content&amp;nbsp;" style="html=1;verticalAlign=bottom;endArrow=open;dashed=1;endSize=8;rounded=0;labelBackgroundColor=default;strokeColor=default;fontFamily=Helvetica;fontSize=11;fontColor=default;shape=connector;curved=0;" edge="1" parent="1mw0ulYPyY49akatDGrM-11">
          <mxGeometry x="0.0023" relative="1" as="geometry">
            <mxPoint x="55" y="360" as="sourcePoint" />
            <mxPoint x="-255" y="360" as="targetPoint" />
            <Array as="points">
              <mxPoint x="-60" y="360" />
            </Array>
            <mxPoint as="offset" />
          </mxGeometry>
        </mxCell>
        <mxCell id="1mw0ulYPyY49akatDGrM-17" value="База данных" style="shape=umlLifeline;perimeter=lifelinePerimeter;whiteSpace=wrap;html=1;container=1;collapsible=0;recursiveResize=0;outlineConnect=0;labelBackgroundColor=none;strokeColor=#82b366;fontFamily=Helvetica;fontSize=11;fillColor=#d5e8d4;" vertex="1" parent="1">
          <mxGeometry x="560" y="40" width="120" height="400" as="geometry" />
        </mxCell>
        <mxCell id="1mw0ulYPyY49akatDGrM-18" value="" style="html=1;points=[];perimeter=orthogonalPerimeter;labelBackgroundColor=none;strokeColor=#000000;fontFamily=Helvetica;fontSize=11;fontColor=default;fillColor=default;" vertex="1" parent="1mw0ulYPyY49akatDGrM-17">
          <mxGeometry x="55" y="310" width="10" height="40" as="geometry" />
        </mxCell>
        <mxCell id="1mw0ulYPyY49akatDGrM-19" value="" style="html=1;verticalAlign=bottom;endArrow=open;dashed=1;endSize=8;rounded=0;labelBackgroundColor=default;strokeColor=default;fontFamily=Helvetica;fontSize=11;fontColor=default;shape=connector;curved=0;" edge="1" parent="1mw0ulYPyY49akatDGrM-17">
          <mxGeometry x="0.0023" relative="1" as="geometry">
            <mxPoint x="53" y="340" as="sourcePoint" />
            <mxPoint x="-95" y="340" as="targetPoint" />
            <Array as="points">
              <mxPoint x="-42" y="340" />
              <mxPoint x="-62" y="340" />
            </Array>
            <mxPoint as="offset" />
          </mxGeometry>
        </mxCell>
        <mxCell id="1mw0ulYPyY49akatDGrM-20" value="return" style="edgeLabel;html=1;align=center;verticalAlign=middle;resizable=0;points=[];fontFamily=Helvetica;fontSize=11;fontColor=default;labelBackgroundColor=default;" vertex="1" connectable="0" parent="1mw0ulYPyY49akatDGrM-19">
          <mxGeometry x="-0.0946" relative="1" as="geometry">
            <mxPoint x="-6" y="-10" as="offset" />
          </mxGeometry>
        </mxCell>
        <mxCell id="1mw0ulYPyY49akatDGrM-21" value="Запись новых данных" style="html=1;verticalAlign=bottom;endArrow=block;rounded=0;labelBackgroundColor=default;strokeColor=default;fontFamily=Helvetica;fontSize=11;fontColor=default;shape=connector;curved=0;" edge="1" parent="1mw0ulYPyY49akatDGrM-17">
          <mxGeometry x="0.0032" width="80" relative="1" as="geometry">
            <mxPoint x="-95" y="320" as="sourcePoint" />
            <mxPoint x="55" y="320" as="targetPoint" />
            <Array as="points" />
            <mxPoint as="offset" />
          </mxGeometry>
        </mxCell>
      </root>
    </mxGraphModel>
  </diagram>
  <diagram id="RVOJOmAE3J8gpCy7hp_n" name="Удаление">
    <mxGraphModel dx="1098" dy="988" grid="1" gridSize="10" guides="1" tooltips="1" connect="1" arrows="1" fold="1" page="1" pageScale="1" pageWidth="827" pageHeight="1169" math="0" shadow="0">
      <root>
        <mxCell id="0" />
        <mxCell id="1" parent="0" />
        <mxCell id="OZAoW09fOd9NYwdkTgdT-1" value="Пользователь" style="shape=umlLifeline;perimeter=lifelinePerimeter;whiteSpace=wrap;html=1;container=1;collapsible=0;recursiveResize=0;outlineConnect=0;labelBackgroundColor=none;strokeColor=#d6b656;fontFamily=Helvetica;fontSize=11;fillColor=#fff2cc;" vertex="1" parent="1">
          <mxGeometry x="40" y="40" width="120" height="370" as="geometry" />
        </mxCell>
        <mxCell id="OZAoW09fOd9NYwdkTgdT-2" value="" style="html=1;points=[];perimeter=orthogonalPerimeter;labelBackgroundColor=none;strokeColor=#000000;fontFamily=Helvetica;fontSize=11;fontColor=default;fillColor=default;" vertex="1" parent="OZAoW09fOd9NYwdkTgdT-1">
          <mxGeometry x="55" y="80" width="10" height="270" as="geometry" />
        </mxCell>
        <mxCell id="OZAoW09fOd9NYwdkTgdT-3" value="" style="ellipse;html=1;shape=endState;fillColor=#000000;strokeColor=#ff0000;fontFamily=Helvetica;fontSize=11;fontColor=default;labelBackgroundColor=default;" vertex="1" parent="OZAoW09fOd9NYwdkTgdT-1">
          <mxGeometry x="45" y="360" width="30" height="30" as="geometry" />
        </mxCell>
        <mxCell id="OZAoW09fOd9NYwdkTgdT-4" value="Система" style="shape=umlLifeline;perimeter=lifelinePerimeter;whiteSpace=wrap;html=1;container=1;collapsible=0;recursiveResize=0;outlineConnect=0;labelBackgroundColor=none;strokeColor=#9673a6;fontFamily=Helvetica;fontSize=11;fillColor=#e1d5e7;" vertex="1" parent="1">
          <mxGeometry x="200" y="40" width="120" height="370" as="geometry" />
        </mxCell>
        <mxCell id="OZAoW09fOd9NYwdkTgdT-5" value="Проверка токена&lt;br&gt;(Общее: проверка прав)" style="html=1;verticalAlign=bottom;endArrow=block;rounded=0;labelBackgroundColor=default;strokeColor=default;fontFamily=Helvetica;fontSize=11;fontColor=default;shape=connector;curved=0;" edge="1" parent="OZAoW09fOd9NYwdkTgdT-4" source="OZAoW09fOd9NYwdkTgdT-6" target="OZAoW09fOd9NYwdkTgdT-7">
          <mxGeometry x="-0.1613" y="10" width="80" relative="1" as="geometry">
            <mxPoint x="64" y="110" as="sourcePoint" />
            <mxPoint x="130" y="150" as="targetPoint" />
            <Array as="points">
              <mxPoint x="130" y="100" />
              <mxPoint x="130" y="130" />
              <mxPoint x="100" y="130" />
            </Array>
            <mxPoint x="10" y="10" as="offset" />
          </mxGeometry>
        </mxCell>
        <mxCell id="OZAoW09fOd9NYwdkTgdT-6" value="" style="html=1;points=[];perimeter=orthogonalPerimeter;labelBackgroundColor=none;strokeColor=#000000;fontFamily=Helvetica;fontSize=11;fontColor=default;fillColor=default;" vertex="1" parent="OZAoW09fOd9NYwdkTgdT-4">
          <mxGeometry x="55" y="90" width="10" height="140" as="geometry" />
        </mxCell>
        <mxCell id="OZAoW09fOd9NYwdkTgdT-7" value="" style="html=1;points=[];perimeter=orthogonalPerimeter;labelBackgroundColor=none;strokeColor=#B09500;fontFamily=Helvetica;fontSize=11;fontColor=#000000;fillColor=#e3c800;" vertex="1" parent="OZAoW09fOd9NYwdkTgdT-4">
          <mxGeometry x="60" y="130" width="10" height="20" as="geometry" />
        </mxCell>
        <mxCell id="OZAoW09fOd9NYwdkTgdT-8" value="Валидация данных&lt;br&gt;(Общее: валидация)" style="html=1;verticalAlign=bottom;endArrow=block;rounded=0;labelBackgroundColor=default;strokeColor=default;fontFamily=Helvetica;fontSize=11;fontColor=default;shape=connector;curved=0;" edge="1" parent="OZAoW09fOd9NYwdkTgdT-4" target="OZAoW09fOd9NYwdkTgdT-9">
          <mxGeometry x="0.0968" width="80" relative="1" as="geometry">
            <mxPoint x="65" y="160" as="sourcePoint" />
            <mxPoint x="130" y="210" as="targetPoint" />
            <Array as="points">
              <mxPoint x="130" y="160" />
              <mxPoint x="130" y="190" />
              <mxPoint x="100" y="190" />
            </Array>
            <mxPoint as="offset" />
          </mxGeometry>
        </mxCell>
        <mxCell id="OZAoW09fOd9NYwdkTgdT-9" value="" style="html=1;points=[];perimeter=orthogonalPerimeter;labelBackgroundColor=none;strokeColor=#001DBC;fontFamily=Helvetica;fontSize=11;fontColor=#ffffff;fillColor=#0050ef;" vertex="1" parent="OZAoW09fOd9NYwdkTgdT-4">
          <mxGeometry x="60" y="190" width="10" height="20" as="geometry" />
        </mxCell>
        <mxCell id="OZAoW09fOd9NYwdkTgdT-10" value="Запрос удаления" style="html=1;verticalAlign=bottom;endArrow=block;rounded=0;labelBackgroundColor=default;strokeColor=default;fontFamily=Helvetica;fontSize=11;fontColor=default;shape=connector;curved=0;" edge="1" parent="1" source="OZAoW09fOd9NYwdkTgdT-2" target="OZAoW09fOd9NYwdkTgdT-6">
          <mxGeometry x="0.0032" width="80" relative="1" as="geometry">
            <mxPoint x="100" y="140" as="sourcePoint" />
            <mxPoint x="180" y="140" as="targetPoint" />
            <Array as="points">
              <mxPoint x="180" y="130" />
            </Array>
            <mxPoint as="offset" />
          </mxGeometry>
        </mxCell>
        <mxCell id="OZAoW09fOd9NYwdkTgdT-11" value="Контроллер&lt;div&gt;комментариев&lt;/div&gt;" style="shape=umlLifeline;perimeter=lifelinePerimeter;whiteSpace=wrap;html=1;container=1;collapsible=0;recursiveResize=0;outlineConnect=0;labelBackgroundColor=none;strokeColor=#d79b00;fontFamily=Helvetica;fontSize=11;fillColor=#ffe6cc;" vertex="1" parent="1">
          <mxGeometry x="360" y="40" width="120" height="370" as="geometry" />
        </mxCell>
        <mxCell id="OZAoW09fOd9NYwdkTgdT-12" value="" style="html=1;points=[];perimeter=orthogonalPerimeter;labelBackgroundColor=none;strokeColor=#000000;fontFamily=Helvetica;fontSize=11;fontColor=default;fillColor=default;" vertex="1" parent="OZAoW09fOd9NYwdkTgdT-11">
          <mxGeometry x="55" y="220" width="10" height="120" as="geometry" />
        </mxCell>
        <mxCell id="OZAoW09fOd9NYwdkTgdT-13" value="Поиск комментария&lt;br&gt;(Общее: поиск по id)" style="html=1;verticalAlign=bottom;endArrow=block;rounded=0;labelBackgroundColor=default;strokeColor=default;fontFamily=Helvetica;fontSize=11;fontColor=default;shape=connector;curved=0;" edge="1" parent="OZAoW09fOd9NYwdkTgdT-11" target="OZAoW09fOd9NYwdkTgdT-14">
          <mxGeometry x="-0.1613" width="80" relative="1" as="geometry">
            <mxPoint x="65" y="230" as="sourcePoint" />
            <mxPoint x="130" y="280" as="targetPoint" />
            <Array as="points">
              <mxPoint x="130" y="230" />
              <mxPoint x="130" y="260" />
              <mxPoint x="100" y="260" />
            </Array>
            <mxPoint as="offset" />
          </mxGeometry>
        </mxCell>
        <mxCell id="OZAoW09fOd9NYwdkTgdT-14" value="" style="html=1;points=[];perimeter=orthogonalPerimeter;labelBackgroundColor=none;strokeColor=#488F00;fontFamily=Helvetica;fontSize=11;fontColor=#ffffff;fillColor=#66CC00;" vertex="1" parent="OZAoW09fOd9NYwdkTgdT-11">
          <mxGeometry x="60" y="260" width="10" height="20" as="geometry" />
        </mxCell>
        <mxCell id="OZAoW09fOd9NYwdkTgdT-15" value="База данных" style="shape=umlLifeline;perimeter=lifelinePerimeter;whiteSpace=wrap;html=1;container=1;collapsible=0;recursiveResize=0;outlineConnect=0;labelBackgroundColor=none;strokeColor=#82b366;fontFamily=Helvetica;fontSize=11;fillColor=#d5e8d4;" vertex="1" parent="1">
          <mxGeometry x="520" y="40" width="120" height="370" as="geometry" />
        </mxCell>
        <mxCell id="OZAoW09fOd9NYwdkTgdT-16" value="" style="html=1;points=[];perimeter=orthogonalPerimeter;labelBackgroundColor=none;strokeColor=#000000;fontFamily=Helvetica;fontSize=11;fontColor=default;fillColor=default;" vertex="1" parent="OZAoW09fOd9NYwdkTgdT-15">
          <mxGeometry x="55" y="300" width="10" height="30" as="geometry" />
        </mxCell>
        <mxCell id="OZAoW09fOd9NYwdkTgdT-17" value="Передача данных" style="html=1;verticalAlign=bottom;endArrow=block;rounded=0;labelBackgroundColor=default;strokeColor=default;fontFamily=Helvetica;fontSize=11;fontColor=default;shape=connector;curved=0;" edge="1" parent="1" source="OZAoW09fOd9NYwdkTgdT-6" target="OZAoW09fOd9NYwdkTgdT-12">
          <mxGeometry x="0.0032" width="80" relative="1" as="geometry">
            <mxPoint x="266" y="210" as="sourcePoint" />
            <mxPoint x="416" y="210" as="targetPoint" />
            <Array as="points">
              <mxPoint x="300" y="260" />
              <mxPoint x="350" y="260" />
            </Array>
            <mxPoint as="offset" />
          </mxGeometry>
        </mxCell>
        <mxCell id="OZAoW09fOd9NYwdkTgdT-18" value="Удаление комментария" style="html=1;verticalAlign=bottom;endArrow=block;rounded=0;labelBackgroundColor=default;strokeColor=default;fontFamily=Helvetica;fontSize=11;fontColor=default;shape=connector;curved=0;" edge="1" parent="1" source="OZAoW09fOd9NYwdkTgdT-12" target="OZAoW09fOd9NYwdkTgdT-16">
          <mxGeometry x="0.0032" width="80" relative="1" as="geometry">
            <mxPoint x="425" y="229.8" as="sourcePoint" />
            <mxPoint x="575" y="229.8" as="targetPoint" />
            <Array as="points">
              <mxPoint x="460" y="340" />
              <mxPoint x="500" y="340" />
            </Array>
            <mxPoint as="offset" />
          </mxGeometry>
        </mxCell>
        <mxCell id="OZAoW09fOd9NYwdkTgdT-19" value="" style="html=1;verticalAlign=bottom;endArrow=open;dashed=1;endSize=8;rounded=0;labelBackgroundColor=default;strokeColor=default;fontFamily=Helvetica;fontSize=11;fontColor=default;shape=connector;curved=0;" edge="1" parent="1" source="OZAoW09fOd9NYwdkTgdT-16" target="OZAoW09fOd9NYwdkTgdT-12">
          <mxGeometry x="0.0023" relative="1" as="geometry">
            <mxPoint x="573" y="239.8" as="sourcePoint" />
            <mxPoint x="425" y="239.8" as="targetPoint" />
            <Array as="points">
              <mxPoint x="520" y="360" />
            </Array>
            <mxPoint as="offset" />
          </mxGeometry>
        </mxCell>
        <mxCell id="OZAoW09fOd9NYwdkTgdT-20" value="return" style="edgeLabel;html=1;align=center;verticalAlign=middle;resizable=0;points=[];fontFamily=Helvetica;fontSize=11;fontColor=default;labelBackgroundColor=default;" vertex="1" connectable="0" parent="OZAoW09fOd9NYwdkTgdT-19">
          <mxGeometry x="-0.0946" relative="1" as="geometry">
            <mxPoint x="-6" y="-10" as="offset" />
          </mxGeometry>
        </mxCell>
        <mxCell id="OZAoW09fOd9NYwdkTgdT-21" value="" style="html=1;verticalAlign=bottom;endArrow=open;dashed=1;endSize=8;rounded=0;labelBackgroundColor=default;strokeColor=default;fontFamily=Helvetica;fontSize=11;fontColor=default;shape=connector;curved=0;" edge="1" parent="1">
          <mxGeometry x="0.0023" relative="1" as="geometry">
            <mxPoint x="413" y="370.0000000000001" as="sourcePoint" />
            <mxPoint x="102.99999999999989" y="370.0000000000001" as="targetPoint" />
            <Array as="points">
              <mxPoint x="258" y="370" />
            </Array>
            <mxPoint as="offset" />
          </mxGeometry>
        </mxCell>
        <mxCell id="OZAoW09fOd9NYwdkTgdT-22" value="Ответ 204" style="edgeLabel;html=1;align=center;verticalAlign=middle;resizable=0;points=[];fontFamily=Helvetica;fontSize=11;fontColor=default;labelBackgroundColor=default;" vertex="1" connectable="0" parent="OZAoW09fOd9NYwdkTgdT-21">
          <mxGeometry x="-0.0946" relative="1" as="geometry">
            <mxPoint x="-6" y="-10" as="offset" />
          </mxGeometry>
        </mxCell>
      </root>
    </mxGraphModel>
  </diagram>
</mxfile>
